<svg width="19" height="19" viewBox="0 0 19 19" fill="none" xmlns="http://www.w3.org/2000/svg">
<path d="M9.49999 16.9132C10.4288 17.7445 11.6554 18.25 13 18.25C15.8995 18.25 18.25 15.8995 18.25 13C18.25 10.5789 16.6112 8.54064 14.3823 7.9339M4.61766 7.93389C2.38882 8.54063 0.75 10.5789 0.75 13C0.75 15.8995 3.10051 18.25 6 18.25C8.8995 18.25 11.25 15.8995 11.25 13C11.25 12.3171 11.1196 11.6646 10.8823 11.0661M14.75 6C14.75 8.8995 12.3995 11.25 9.5 11.25C6.60051 11.25 4.25 8.8995 4.25 6C4.25 3.10051 6.60051 0.75 9.5 0.75C12.3995 0.75 14.75 3.10051 14.75 6Z" stroke="black" stroke-width="1.5" stroke-linecap="round" stroke-linejoin="round"/>
</svg>
