<svg width="15" height="19" viewBox="0 0 15 19" fill="none" xmlns="http://www.w3.org/2000/svg">
<path d="M7.5 14.3125H7.50875M4.175 18.25H10.825C11.8051 18.25 12.2951 18.25 12.6695 18.0593C12.9988 17.8915 13.2665 17.6238 13.4343 17.2945C13.625 16.9201 13.625 16.4301 13.625 15.45V3.55C13.625 2.56991 13.625 2.07986 13.4343 1.70552C13.2665 1.37623 12.9988 1.10852 12.6695 0.940739C12.2951 0.75 11.8051 0.75 10.825 0.75H4.175C3.19491 0.75 2.70486 0.75 2.33052 0.940739C2.00123 1.10852 1.73352 1.37623 1.56574 1.70552C1.375 2.07986 1.375 2.56991 1.375 3.55V15.45C1.375 16.4301 1.375 16.9201 1.56574 17.2945C1.73352 17.6238 2.00123 17.8915 2.33052 18.0593C2.70486 18.25 3.19491 18.25 4.175 18.25ZM7.9375 14.3125C7.9375 14.5541 7.74162 14.75 7.5 14.75C7.25838 14.75 7.0625 14.5541 7.0625 14.3125C7.0625 14.0709 7.25838 13.875 7.5 13.875C7.74162 13.875 7.9375 14.0709 7.9375 14.3125Z" stroke="black" stroke-width="1.5" stroke-linecap="round" stroke-linejoin="round"/>
</svg>
