<svg width="17" height="21" viewBox="0 0 17 21" fill="none" xmlns="http://www.w3.org/2000/svg">
<path d="M1.20963 10.5H8.5013M8.5013 10.5L5.3763 13.625M8.5013 10.5L5.3763 7.375M1.20963 4.25V3.20833C1.20963 2.6558 1.42913 2.12589 1.81983 1.73519C2.21053 1.34449 2.74043 1.125 3.29297 1.125H13.7096C14.2622 1.125 14.7921 1.34449 15.1828 1.73519C15.5735 2.12589 15.793 2.6558 15.793 3.20833V17.7917C15.793 18.3442 15.5735 18.8741 15.1828 19.2648C14.7921 19.6555 14.2622 19.875 13.7096 19.875H3.29297C2.74043 19.875 2.21053 19.6555 1.81983 19.2648C1.42913 18.8741 1.20963 18.3442 1.20963 17.7917V16.75" stroke="white" stroke-width="1.5" stroke-linecap="round" stroke-linejoin="round"/>
</svg>
