<?xml version="1.0" encoding="UTF-8"?>
<svg xmlns="http://www.w3.org/2000/svg" viewBox="0 0 800 450" width="800" height="450" role="img" aria-label="Слайд 3">
  <defs>
    <linearGradient id="g3" x1="0" y1="1" x2="1" y2="0">
      <stop offset="0%" stop-color="#a78bfa"/>
      <stop offset="100%" stop-color="#6366f1"/>
    </linearGradient>
  </defs>
  <rect width="800" height="450" fill="url(#g3)"/>
  <g fill="#0b1220" opacity="0.15">
    <path d="M0 380 C 120 340, 240 420, 360 380 S 600 340, 800 380 V 450 H 0 Z"/>
    <path d="M0 320 C 140 280, 260 360, 380 320 S 620 280, 800 320 V 450 H 0 Z"/>
  </g>
  <g>
    <rect x="120" y="110" width="560" height="220" rx="24" fill="#0f172a" opacity="0.25"/>
    <g transform="translate(150,140)">
      <rect x="0" y="0" width="120" height="80" rx="12" fill="#ffffff" opacity="0.95"/>
      <rect x="150" y="0" width="120" height="80" rx="12" fill="#ffffff" opacity="0.9"/>
      <rect x="300" y="0" width="120" height="80" rx="12" fill="#ffffff" opacity="0.85"/>
    </g>
    <g transform="translate(150,240)">
      <rect x="0" y="0" width="72" height="48" rx="10" fill="#ffffff" opacity="0.9"/>
      <rect x="92" y="0" width="72" height="48" rx="10" fill="#ffffff" opacity="0.85"/>
      <rect x="184" y="0" width="72" height="48" rx="10" fill="#ffffff" opacity="0.8"/>
      <rect x="276" y="0" width="72" height="48" rx="10" fill="#ffffff" opacity="0.75"/>
      <rect x="368" y="0" width="72" height="48" rx="10" fill="#ffffff" opacity="0.7"/>
    </g>
  </g>
  <text x="400" y="370" font-family="system-ui, -apple-system, Segoe UI, Roboto, Ubuntu, Cantarell, 'Helvetica Neue', Arial, 'Noto Sans', sans-serif" font-size="34" text-anchor="middle" fill="#0f172a" opacity="0.95">Готово к масштабированию</text>
</svg>
