<svg width="24" height="24" fill="none" xmlns="http://www.w3.org/2000/svg"><path d="M19.133 11.569c0-.376-.211-.721-.547-.892a28.27 28.27 0 00-2.813-1.233c-1.706-.654-2.949-1.916-3.595-3.645a29.208 29.208 0 00-1.216-2.855 1 1 0 00-1.792.001c-.43.869-.827 1.803-1.214 2.85-.646 1.732-1.89 2.994-3.593 3.647-1.038.395-1.96.798-2.817 1.235a1 1 0 00.001 1.783c.862.438 1.783.842 2.813 1.232 1.706.654 2.949 1.916 3.595 3.646a29.437 29.437 0 001.215 2.854 1 1 0 001.792 0c.431-.87.828-1.803 1.214-2.851.647-1.732 1.892-2.994 3.593-3.647a28.357 28.357 0 002.817-1.233 1 1 0 00.547-.892zm-2.038-5.027c.255.13.506.237.753.33.207.08.352.229.43.436.092.253.197.505.324.763.167.342.515.56.896.56h.002a1 1 0 00.896-.557c.127-.257.23-.51.324-.761a.722.722 0 01.428-.438 7.47 7.47 0 00.756-.332 1 1 0 00-.001-1.783 8.087 8.087 0 00-.752-.33.721.721 0 01-.43-.437 7.85 7.85 0 00-.326-.764 1 1 0 00-.896-.556h-.002a.998.998 0 00-.896.559c-.126.257-.231.51-.322.758a.722.722 0 01-.428.438 7.613 7.613 0 00-.757.332.998.998 0 000 1.782zm5.359 10.643a9.3 9.3 0 00-.938-.411 1.204 1.204 0 01-.713-.724 9.883 9.883 0 00-.406-.952.997.997 0 00-1.792.002c-.157.32-.288.635-.402.945-.13.347-.377.599-.711.727a9.131 9.131 0 00-.942.414 1 1 0 000 1.782c.316.161.628.294.939.413.337.129.584.38.712.723.116.315.247.631.405.95a1 1 0 001.792.002c.159-.32.29-.636.406-.949a1.2 1.2 0 01.712-.726c.312-.119.623-.251.939-.412a1.001 1.001 0 000-1.784h-.001z" fill="#000"/></svg>