<svg width="17" height="19" viewBox="0 0 17 19" fill="none" xmlns="http://www.w3.org/2000/svg">
<path d="M10.47 0.75H5.43392C5.27687 0.75 5.19835 0.75 5.12903 0.773911C5.06772 0.795057 5.01189 0.829566 4.96556 0.874942C4.91317 0.926254 4.87805 0.996486 4.80782 1.13695L1.13282 8.48695C0.965099 8.82239 0.881239 8.99011 0.901382 9.12645C0.918971 9.24549 0.984821 9.35204 1.08343 9.42101C1.19637 9.5 1.38388 9.5 1.75892 9.5H7.18879L4.56379 18.25L15.2328 7.18589C15.5927 6.81261 15.7727 6.62597 15.7832 6.46627C15.7923 6.32765 15.7351 6.19292 15.629 6.10328C15.5067 6 15.2474 6 14.7289 6H8.50129L10.47 0.75Z" stroke="black" stroke-width="1.5" stroke-linecap="round" stroke-linejoin="round"/>
</svg>
