<svg width="200" height="227" fill="none" xmlns="http://www.w3.org/2000/svg"><path d="M58 91l9.413-18.827c3.186-6.372 4.78-9.558 6.907-12.318a36 36 0 016.535-6.535c2.76-2.128 5.946-3.72 12.318-6.907L112 37l-18.827-9.413c-6.372-3.186-9.558-4.78-12.318-6.907a36 36 0 01-6.535-6.535c-2.128-2.76-3.72-5.946-6.906-12.318L58-17 48.587 1.827c-3.186 6.372-4.78 9.558-6.907 12.318a36 36 0 01-6.535 6.535c-2.76 2.128-5.946 3.72-12.318 6.907L4 37l18.827 9.413c6.372 3.186 9.558 4.78 12.318 6.907a36 36 0 016.535 6.535c2.128 2.76 3.72 5.946 6.907 12.318L58 91zm102 132l14.143-36.773c3.385-8.799 5.077-13.198 7.708-16.899a36.022 36.022 0 018.477-8.477c3.701-2.631 8.1-4.323 16.899-7.708L244 139l-36.773-14.143c-8.799-3.385-13.198-5.077-16.899-7.708a36.022 36.022 0 01-8.477-8.477c-2.631-3.701-4.323-8.1-7.708-16.899L160 55l-14.143 36.773c-3.385 8.799-5.077 13.198-7.708 16.899a36.022 36.022 0 01-8.477 8.477c-3.701 2.631-8.1 4.323-16.899 7.708L76 139l36.773 14.143c8.799 3.385 13.198 5.077 16.899 7.708a36.022 36.022 0 018.477 8.477c2.631 3.701 4.323 8.1 7.708 16.899L160 223z" stroke="#000" stroke-width="8" stroke-linecap="round" stroke-linejoin="round"/></svg>