<svg width="17" height="19" viewBox="0 0 17 19" fill="none" xmlns="http://www.w3.org/2000/svg">
<path d="M12.875 7.75V6C12.875 3.58375 10.9162 1.625 8.5 1.625C6.08375 1.625 4.125 3.58375 4.125 6V7.75M8.5 11.6875V13.4375M5.7 17.375H11.3C12.7701 17.375 13.5052 17.375 14.0667 17.0889C14.5607 16.8372 14.9622 16.4356 15.2139 15.9417C15.5 15.3802 15.5 14.6451 15.5 13.175V11.95C15.5 10.4799 15.5 9.74479 15.2139 9.18327C14.9622 8.68935 14.5607 8.28778 14.0667 8.03611C13.5052 7.75 12.7701 7.75 11.3 7.75H5.7C4.22986 7.75 3.49479 7.75 2.93327 8.03611C2.43935 8.28778 2.03778 8.68935 1.78611 9.18327C1.5 9.74479 1.5 10.4799 1.5 11.95V13.175C1.5 14.6451 1.5 15.3802 1.78611 15.9417C2.03778 16.4356 2.43935 16.8372 2.93327 17.0889C3.49479 17.375 4.22986 17.375 5.7 17.375Z" stroke="black" stroke-width="1.5" stroke-linecap="round" stroke-linejoin="round"/>
</svg>
