<svg width="16" height="15" fill="none" xmlns="http://www.w3.org/2000/svg"><path d="M12.354 2.334a1.5 1.5 0 00.81.812l1.289.534a1.5 1.5 0 01.811 1.96l-.533 1.286a1.498 1.498 0 000 1.15l.533 1.286a1.5 1.5 0 01-.812 1.96l-1.287.533a1.5 1.5 0 00-.812.811l-.534 1.288a1.5 1.5 0 01-1.96.812l-1.286-.533a1.5 1.5 0 00-1.148 0l-1.288.533a1.5 1.5 0 01-1.959-.811l-.533-1.288a1.5 1.5 0 00-.811-.812l-1.288-.534a1.5 1.5 0 01-.812-1.959l.533-1.287a1.5 1.5 0 00-.001-1.147l-.532-1.29a1.5 1.5 0 01.812-1.96l1.287-.533a1.5 1.5 0 00.811-.81l.534-1.288a1.5 1.5 0 011.96-.811l1.287.533A1.5 1.5 0 008.572.768L9.861.236a1.5 1.5 0 011.96.812l.533 1.288v-.002z" fill="#fff"/></svg>