<svg width="160" height="198" fill="none" xmlns="http://www.w3.org/2000/svg"><path d="M4.168 83c0 61.212 49.622 110.834 110.833 110.834 18.364 0 33.25-14.887 33.25-33.25v-5.542c0-5.147 0-7.721.285-9.882 1.964-14.92 13.705-26.661 28.625-28.625 2.161-.285 4.735-.285 9.882-.285h5.542c18.363 0 33.25-14.886 33.25-33.25 0-61.211-49.622-110.833-110.834-110.833C53.79-27.833 4.168 21.789 4.168 83z" stroke="#000" stroke-width="8" stroke-linecap="round" stroke-linejoin="round"/><path d="M59.585 94.084c6.12 0 11.083-4.963 11.083-11.084 0-6.12-4.962-11.083-11.083-11.083S48.5 76.879 48.5 83s4.963 11.084 11.084 11.084zm99.75-44.334c6.121 0 11.083-4.962 11.083-11.083s-4.962-11.083-11.083-11.083c-6.122 0-11.084 4.962-11.084 11.083s4.962 11.083 11.084 11.083zm-66.5-11.083c6.12 0 11.083-4.962 11.083-11.083 0-6.122-4.962-11.084-11.083-11.084S81.75 21.462 81.75 27.584c0 6.12 4.962 11.083 11.084 11.083z" stroke="#000" stroke-width="8" stroke-linecap="round" stroke-linejoin="round"/></svg>